<svg width="76" height="21" viewBox="0 0 76 21" fill="none" xmlns="http://www.w3.org/2000/svg">
<path fill-rule="evenodd" clip-rule="evenodd" d="M75.9815 9.72156C75.9397 7.30661 74.3282 5.31539 72.04 4.84917C70.7974 4.59649 69.5967 4.7888 68.4855 5.42496C68.3813 5.32881 68.3044 5.26731 68.2399 5.19464C67.828 4.72842 67.2938 4.64345 66.7552 4.85029C66.2301 5.05042 66.0399 5.53564 66.0388 6.06559C66.031 9.0731 66.0252 12.0817 66.0411 15.0892C66.0456 15.9691 66.53 16.4566 67.2995 16.4476C68.0362 16.4398 68.5002 15.9032 68.5024 15.0356C68.507 13.2836 68.4956 11.5294 68.5081 9.77634C68.5171 8.24576 69.6126 7.09306 71.0283 7.13331C72.4949 7.17468 73.6119 8.37992 73.5598 9.7797C73.4953 11.5305 73.5338 13.2859 73.5508 15.0378C73.5575 15.9199 74.0351 16.4443 74.7695 16.4454C75.5062 16.4476 75.9781 15.9255 75.9849 15.04C75.9985 13.2668 76.0121 11.4936 75.9815 9.72156ZM8.93977 13.9933C7.00464 13.9878 5.06838 13.9799 3.13212 13.9978C2.66701 14.0023 2.4916 13.8681 2.50065 13.3851C2.52555 11.8121 2.50858 10.2379 2.50858 8.66368C2.50858 6.23419 2.5131 3.80247 2.50631 1.37186C2.50405 0.525511 2.01517 0.00450789 1.25357 1.77818e-05C0.486306 -0.00331834 0.0121428 0.462902 0.00761616 1.29136C-0.0037004 3.60234 0.00422119 5.91331 0.00422119 8.22429H0.00195788C0.00195788 10.476 -0.0037004 12.7266 0.00422119 14.9783C0.00761616 16.0997 0.368614 16.4497 1.47764 16.4508C3.95936 16.4519 6.43881 16.453 8.91827 16.4508C9.77946 16.4497 10.3611 15.9734 10.3703 15.2735C10.3781 14.5378 9.78286 13.9956 8.93977 13.9933ZM60.5373 0.0048433C59.6772 -0.0499403 59.1363 0.473299 59.1318 1.40798C59.1227 3.65969 59.1284 5.91141 59.1284 8.16313C59.1295 10.4551 59.1227 12.7471 59.1318 15.039C59.1363 15.9726 59.6252 16.4724 60.4637 16.45C61.2185 16.4288 61.6972 15.9022 61.7017 15.0525C61.7108 13.5185 61.7051 11.9835 61.7051 10.4495C61.7051 7.45989 61.7074 4.47139 61.7029 1.48177C61.7017 0.610817 61.2502 0.0506827 60.5373 0.0048433ZM48.6273 14.0758C46.7974 14.0869 45.3534 12.5496 45.3613 10.5953C45.3681 8.65328 46.768 7.19201 48.625 7.18864C50.4775 7.18418 51.8842 8.69688 51.8741 10.6803C51.8638 12.5496 50.4142 14.0657 48.6273 14.0758ZM45.3896 5.62676C44.774 4.83743 44.2353 4.57916 43.6005 4.82178C42.8174 5.11917 42.8275 5.80565 42.8411 6.47759C42.8423 6.51672 42.8411 6.55697 42.8411 6.59722V16.9927C42.8411 17.8692 42.7891 18.7502 42.8705 19.6189C42.9079 20.008 43.1218 20.4944 43.4217 20.7224C44.2274 21.3318 45.3206 20.6844 45.3523 19.6111C45.3828 18.6362 45.3602 17.6602 45.3602 16.6841V15.4733C46.7793 16.3174 48.1508 16.6237 49.6469 16.3375C51.1712 16.0457 52.3595 15.2687 53.2671 14.0478C54.788 12.0007 54.7393 9.02894 53.1607 7.03213C51.2572 4.62724 48.9385 4.20015 45.3896 5.62676ZM33.5135 13.8252C31.2366 14.6693 29.1204 13.1331 29.1215 10.6354C29.1226 8.86559 30.1694 7.50942 31.6971 7.21761C33.8258 6.81065 35.272 8.43403 35.5006 9.99369C35.7541 11.7255 34.9178 13.3031 33.5135 13.8252ZM36.4501 4.82167C36.0733 4.95248 35.7847 5.33373 35.3954 5.65013C32.452 3.83444 29.5493 4.9849 28.1245 6.62505C26.3727 8.64199 26.1577 11.7132 27.6786 14.0175C28.3531 15.0394 29.2935 15.746 30.4444 16.1473C32.2302 16.769 33.9254 16.4783 35.4972 15.4911C36.0744 16.3888 36.4705 16.6046 37.128 16.419C37.704 16.2569 37.9778 15.7393 37.9778 14.8102C37.979 13.634 37.979 12.4578 37.9778 11.2817C37.9778 9.54759 37.9869 7.81352 37.9744 6.07834C37.9688 5.13807 37.2739 4.53657 36.4501 4.82167ZM15.0069 9.45625C14.9956 8.3494 16.3796 7.0167 17.8372 6.87807C19.5301 6.71819 21.3962 7.90777 21.8161 9.45625H15.0069ZM17.0903 4.87008C13.7474 5.51295 11.7251 8.8827 12.6418 12.1574C13.9341 16.7648 19.1341 17.5407 22.1975 15.1918C22.5415 14.9279 22.8267 14.635 22.7757 14.1486C22.6818 13.2285 21.7097 12.902 20.8451 13.5058C19.477 14.4606 17.4581 14.4035 16.1737 13.3515C15.5875 12.8707 15.197 12.2647 15.0737 11.4106H15.7832C17.939 11.4106 20.096 11.4128 22.2529 11.4072C22.5132 11.4061 22.778 11.3882 23.0304 11.3345C23.6867 11.197 23.9606 10.8706 23.9413 10.2065C23.8451 7.11397 21.1292 4.09416 17.0903 4.87008Z" fill="#2257BF"/>
</svg>
